<svg id="圖層_1" data-name="圖層 1" xmlns="http://www.w3.org/2000/svg" viewBox="0 0 2352.96 1049.41"><defs><style>.cls-1{fill-rule:evenodd;}</style></defs><path class="cls-1" d="M73.53,1053.34v164.07H553.45c55.78,0,127-51.58,127-136.91,0-34.32,13.12-56.71-27.21-102.1L591.9,905.67c-35.17-32.82,4.2-32.82,33.75-32.82H828.28v344.56H989V872.85h216.58V725.3H504.23c-85.33,0-127.06,81.93-124.71,124.58s10.21,96.33,81.11,160.8c64.68,58.79-32,42.66-41.73,42.66Zm1487.36-328H1301.65l-145.33,492.12h161.73l26.24-68.91h170.63l25.33,68.91h158.43L1560.89,725.3ZM1380.4,1030.37l55.78-180.49,52.52,180.49Zm830.21,23c-62.35,0-62.35-23-62.35-23,53.42,0,100.79-77.83,100.79-157.52S2171.23,725.3,2108.86,725.3H1760.09v492.12h177.22V1053.35s75.45,88.6,114.83,124.69,42.66,39.38,96.11,39.38h278.19V1053.35s-153.49,0-215.83,0Zm-160.8-114.85H1937.33V849.88h112.48C2101.37,849.88,2110.3,938.49,2049.81,938.49ZM73.53,1279.75h181.3l45.94,164.1,42.66-164.1H533.76L583,1443.85l49.23-164.1H789.72L645.32,1772H500.94l-63.26-233L366.4,1772H218.74Zm1088.28,2.84H902.57L757.25,1774.7H919l26.25-68.89h170.65l25.33,68.89h158.44ZM981.33,1587.65l55.78-180.48,52.51,180.48Zm1232.54-160.21c-29.5,0-61.68,3.45-26.49,36.25l61.4,72.75c40.32,45.39,39.67,64.31,39.67,98.66,0,85.31-84.41,136.89-140.19,136.89l-387.74,2.61c-53.43,0-56.69-3.27-96.08-39.36s-114.85-124.71-114.85-124.71V1774.6H1372.4V1282.49h348.77c62.34,0,140.19,67.88,140.19,147.56s-47.37,157.51-100.82,157.51c0,0,23.5,23.63,62.88,23.63s191,.16,191,.16c9.7,0,106.39,16.14,41.72-42.66-70.91-64.47-78.75-118.11-81.11-160.77s34.52-128.15,119.81-128.15h331.64v147.68H2213.87Zm-551.79,68.23h-112.5v-88.61h112.5C1713.66,1407.06,1722.57,1495.67,1662.08,1495.67Z" transform="translate(-73.53 -725.3)"/></svg>